<?xml version="1.0" encoding="UTF-8"?>
<svg width="143px" height="36px" viewBox="0 0 143 36" version="1.1" xmlns="http://www.w3.org/2000/svg" xmlns:xlink="http://www.w3.org/1999/xlink">
    <title>53414A1F-3A8A-4DDC-9965-A2D06E4E4265</title>
    <g id="UI-kit" stroke="none" stroke-width="1" fill="none" fill-rule="evenodd">
        <g id="UI-KIT" transform="translate(-43.000000, -107.000000)" fill-rule="nonzero">
            <g id="Digital_ai-FC-RGB" transform="translate(43.000000, 107.000000)">
                <path d="M138.84619,8.18934837 L138.129398,8.18934837 L138.129398,7.79511278 L139.921378,7.79511278 L139.921378,8.18934837 L139.222506,8.18934837 L139.222506,10.3397243 L138.813935,10.3397243 L138.84619,8.18934837 Z M140.279774,7.79511278 L140.914135,7.79511278 L141.509073,9.58709273 L141.509073,9.58709273 L142.096842,7.79511278 L142.734787,7.79511278 L142.734787,10.3325564 L142.333383,10.3325564 L142.333383,8.29328321 L142.333383,8.29328321 L141.638095,10.3325564 L141.354962,10.3325564 L140.670426,8.29328321 L140.670426,8.29328321 L140.670426,10.3325564 L140.283358,10.3325564 L140.279774,7.79511278 Z M126.388346,7.71626566 C125.355857,7.67863272 124.465853,8.43638109 124.338321,9.46165414 C122.96208,8.04957393 120.958647,7.2754386 118.657744,7.2754386 C115.964507,7.25603484 113.376514,8.32005413 111.47577,10.2282133 C109.575025,12.1363724 108.521089,14.728488 108.550977,17.4216291 C108.550977,17.5614035 108.550977,17.69401 108.550977,17.8302005 C110.748053,18.6898591 112.194384,20.807447 112.195865,23.1667168 C112.195216,23.8014636 112.087375,24.431543 111.876892,25.0303759 C113.755229,26.6548888 116.163807,27.5346764 118.646992,27.5033083 C120.752896,27.4532401 122.768465,26.6378393 124.316817,25.2095739 C124.367159,26.2983507 125.28865,27.1413142 126.377594,27.0947368 C127.674987,27.0947368 128.477794,26.2883459 128.477794,24.9909524 L128.477794,9.78779449 C128.513751,9.22304229 128.30301,8.67045435 127.90012,8.27306524 C127.497231,7.87567612 126.941799,7.67255023 126.377594,7.71626566 M118.629073,23.0484507 C116.347913,23.0513461 114.289825,21.6792487 113.415188,19.5724245 C112.54055,17.4656003 113.021763,15.0393251 114.634275,13.4257871 C116.246786,11.812249 118.672755,11.3294924 120.780135,12.202789 C122.887515,13.0760855 124.260922,15.1332999 124.259475,17.4144612 C124.257499,20.523808 121.738418,23.0444933 118.629073,23.0484507 M89.3982957,7.71626566 C88.3665583,7.67880747 87.4776692,8.43693175 87.3518546,9.46165414 C85.975614,8.04957393 83.9721805,7.2754386 81.6712782,7.2754386 C78.9780411,7.25603484 76.3900483,8.32005413 74.4893034,10.2282133 C72.5885585,12.1363724 71.5346226,14.728488 71.5645113,17.4216291 C71.5645113,23.1559649 75.9082707,27.5033083 81.6712782,27.5033083 C83.7771817,27.4532401 85.7927506,26.6378393 87.3411028,25.2095739 C87.39146,26.2968931 88.310723,27.139284 89.3982957,27.0947368 C90.6956892,27.0947368 91.5020802,26.2883459 91.5020802,24.9909524 L91.5020802,9.78779449 C91.5020802,8.52982456 90.6777694,7.71626566 89.3982957,7.71626566 M81.4956642,23.0484507 C79.2145043,23.0513461 77.1564164,21.6792487 76.281779,19.5724245 C75.4071416,17.4656003 75.8883544,15.0393251 77.500866,13.4257871 C79.1133777,11.812249 81.5393461,11.3294924 83.6467265,12.202789 C85.7541068,13.0760855 87.1275135,15.1332999 87.1260663,17.4144612 C87.124091,20.523808 84.6050092,23.0444933 81.4956642,23.0484507 M17.9878947,0.215037594 C17.4236901,0.171322164 16.8682577,0.374448053 16.4653684,0.771837167 C16.0624791,1.16922628 15.851738,1.72181422 15.8876942,2.28656642 L15.8876942,9.49032581 C14.565213,8.05674185 12.5832832,7.2754386 10.2572932,7.2754386 C4.88135338,7.2754386 0.154110276,12.0170175 0.154110276,17.4216291 C0.154110276,22.8262406 4.87776942,27.5033083 10.2572932,27.5033083 C12.4325811,27.4511022 14.5072493,26.5764118 16.0633083,25.0554637 C16.2962657,26.3743609 17.0919048,27.0947368 18.3283709,27.0947368 C18.8152764,27.0977002 19.281557,26.8983765 19.615864,26.5443643 C19.950171,26.1903522 20.122493,25.7134323 20.0916792,25.2274937 L20.0916792,2.29015038 C20.119415,1.72699741 19.9055417,1.17876647 19.5037818,0.783166344 C19.1020218,0.387566223 18.550552,0.182188518 17.9878947,0.218621554 M10.2178697,23.0484507 C7.93670978,23.0513461 5.8786219,21.6792487 5.00398451,19.5724245 C4.12934711,17.4656003 4.61055991,15.0393251 6.22307155,13.4257871 C7.83558319,11.812249 10.2615516,11.3294924 12.368932,12.202789 C14.4763123,13.0760855 15.849719,15.1332999 15.8482718,17.4144612 C15.8462965,20.523808 13.3272147,23.0444933 10.2178697,23.0484507 M48.5877444,7.71626566 C47.2437594,7.71626566 46.5520551,8.34704261 46.3764411,9.74837093 C44.818608,8.21588146 42.7370353,7.33201369 40.5525063,7.2754386 C35.1765664,7.2754386 30.4457393,12.0026817 30.4457393,17.3893734 C30.4457393,22.7760652 35.1693985,27.5033083 40.5525063,27.5033083 C42.9824311,27.5033083 44.9070175,26.7578446 46.1398997,25.3529323 C46.025213,29.4278947 44.061203,31.4098246 40.1439348,31.4098246 C39.5750289,31.3712641 39.0172244,31.5804981 38.6140241,31.9836983 C38.2108239,32.3868986 38.0015899,32.9447031 38.0401504,33.513609 C38.0401504,34.85401 38.8572932,35.6209774 40.2801253,35.6209774 C47.7383459,35.6209774 50.3833083,30.1912782 50.3833083,25.5392982 L50.3833083,9.55125313 C50.4063211,9.06540892 50.2263924,8.59185214 49.8865656,8.24386949 C49.5467388,7.89588684 49.0775816,7.70477968 48.5913283,7.71626566 M40.4593233,23.0484507 C38.1781634,23.0513461 36.1200755,21.6792487 35.2454381,19.5724245 C34.3708007,17.4656003 34.8520135,15.0393251 36.4645252,13.4257871 C38.0770368,11.812249 40.5030053,11.3294924 42.6103856,12.202789 C44.717766,13.0760855 46.0911727,15.1332999 46.0897255,17.4144612 C46.0877501,20.523808 43.5686683,23.0444933 40.4593233,23.0484507 M134.240802,7.57290727 C133.688164,7.56101782 133.154687,7.77556683 132.764161,8.16676945 C132.373636,8.55797208 132.160011,9.0918197 132.172857,9.64443609 L132.122682,25.0554637 C132.092056,25.615962 132.298828,26.1634546 132.692327,26.5637732 C133.085825,26.9640919 133.629685,27.1802398 134.190627,27.1592481 C135.48802,27.1592481 136.294411,26.3528571 136.294411,25.0554637 L136.344586,9.64443609 C136.373489,9.08096071 136.159987,8.53203251 135.757956,8.13616537 C135.355925,7.74029824 134.803764,7.53530304 134.240802,7.57290727 M25.5034586,7.48330827 C24.9505065,7.47145518 24.4166901,7.68589648 24.0256041,8.07698251 C23.634518,8.46806854 23.4200767,9.00188495 23.4319298,9.55483709 L23.4319298,24.9909524 C23.4012295,25.5520973 23.6084781,26.1001907 24.0027792,26.5006315 C24.3970803,26.9010723 24.9419064,27.1167639 25.5034586,27.0947368 C26.8008521,27.0947368 27.6036591,26.2883459 27.6036591,24.9909524 L27.6036591,9.55483709 C27.6324594,8.99202692 27.4194324,8.44372438 27.0182155,8.04798486 C26.6169986,7.65224535 26.0658198,7.4467749 25.5034586,7.48330827 M56.1570677,7.53706767 C55.6044299,7.52517822 55.070953,7.73972723 54.6804272,8.13092986 C54.2899013,8.52213248 54.0762764,9.0559801 54.0891228,9.60859649 L54.0891228,24.9909524 C54.0584967,25.5514507 54.2652688,26.0989433 54.6587677,26.499262 C55.0522666,26.8995806 55.5961259,27.1157286 56.1570677,27.0947368 C57.4544612,27.0947368 58.2608521,26.2883459 58.2608521,24.9909524 L58.2608521,9.60859649 C58.29295,9.04330491 58.0808588,8.49142909 57.678442,8.09312565 C57.2760253,7.69482222 56.7219997,7.48841201 56.1570677,7.52631579 M69.084411,23.0126065 C67.7153383,22.8979198 66.8695238,22.5108521 66.8695238,20.9410777 L66.8695238,12.0600251 L67.9447118,12.0600251 C68.499138,12.0791793 69.0366872,11.8675862 69.4292992,11.4756535 C69.8219111,11.0837208 70.0344347,10.5465388 70.0162406,9.9920802 C70.0162406,8.71260652 69.2026817,7.88471178 67.9447118,7.88471178 L66.8695238,7.88471178 L66.8695238,2.32240602 C66.8695238,1.02501253 66.0631328,0.218621554 64.7657393,0.218621554 C64.2047975,0.197629824 63.6609383,0.413777824 63.2674394,0.81409644 C62.8739405,1.21441506 62.6671684,1.76190766 62.6977945,2.32240602 L62.6977945,7.93488722 C61.6907018,8.08899749 61.0706767,8.86671679 61.0706767,9.9920802 C61.0253625,10.9857542 61.7197774,11.8606558 62.6977945,12.0421053 L62.6977945,20.9840852 C62.6977945,24.8690977 64.7872431,27.076817 68.4321303,27.076817 C69.9409774,27.076817 70.8405514,26.3600251 70.8405514,25.1414787 C70.8405514,23.9229323 70.2026065,23.1129574 69.087995,22.9911028 M97.5625564,0.215037594 C97.006251,0.190275703 96.4651922,0.400687249 96.0717765,0.794784845 C95.6783607,1.18888244 95.4688864,1.7303047 95.4946115,2.28656642 L95.4946115,24.9909524 C95.4639854,25.5514507 95.6707576,26.0989433 96.0642564,26.499262 C96.4577553,26.8995806 97.0016146,27.1157286 97.5625564,27.0947368 C98.8599499,27.0947368 99.6663409,26.2883459 99.6663409,24.9909524 L99.6663409,2.28656642 C99.6663409,1.01067669 98.8599499,0.215037594 97.5625564,0.215037594 M109.74802,20.9625815 C109.677637,20.8566013 109.601045,20.7548781 109.518647,20.6579449 C109.327084,20.4281566 109.110736,20.2202218 108.873534,20.0379198 C108.791103,19.9769925 108.705088,19.9160652 108.615489,19.8587218 C108.174503,19.5691832 107.679577,19.3717007 107.160401,19.2781203 C106.941244,19.2420007 106.719481,19.22402 106.497368,19.2243558 C105.834272,19.2232929 105.181815,19.3910321 104.601454,19.7117794 C104.489879,19.7706055 104.382144,19.8364434 104.278897,19.9088972 C103.192192,20.6417386 102.540767,21.8667492 102.540767,23.1774687 C102.540767,24.4881881 103.192192,25.7131987 104.278897,26.4460401 C104.382979,26.5172116 104.490639,26.5830038 104.601454,26.6431579 C106.012427,27.407355 107.745796,27.2401126 108.984637,26.2202506 C109.180176,26.0593681 109.359076,25.8792677 109.518647,25.6826566 C109.600182,25.5862782 109.67674,25.4857963 109.74802,25.381604 C109.887697,25.169615 110.007664,24.9452777 110.106416,24.7114035 C110.626174,23.4848546 110.491364,22.0787795 109.74802,20.9733333" id="Shape" fill="#2A2A2A"></path>
                <path d="M85.2373183,16.5435589 C85.3037335,16.8291067 85.3374009,17.1212915 85.3376692,17.4144612 C85.3363171,17.58362 85.3231438,17.7524776 85.2982456,17.9197995 C85.2794521,18.0793908 85.2495126,18.2374713 85.2086466,18.3928822 C85.1263742,18.6971312 85.0059534,18.9897537 84.8502506,19.2637845 C84.0137725,20.8100734 82.233723,21.5904378 80.5297283,21.1578788 C78.8257337,20.7253198 77.633414,19.1904195 77.6356931,17.432381 C77.6344322,17.1722669 77.6608639,16.9127548 77.7145865,16.6582456 C77.9676948,15.4191425 78.8149249,14.3842348 79.9796491,13.8914286 C80.9345607,13.4850904 82.0137601,13.4850904 82.9686717,13.8914286 C83.8288255,14.2493751 84.5294327,14.9079458 84.9398496,15.7443358 C85.0635342,15.9998051 85.1596489,16.2677248 85.2265664,16.5435589 M10.2178697,13.5688705 C8.6621488,13.5674223 7.25880795,14.5034502 6.66245444,15.9403329 C6.06610093,17.3772157 6.39422797,19.0318595 7.49377626,20.1324335 C8.59332455,21.2330075 10.2476618,21.5626772 11.6850999,20.9676637 C13.1225381,20.3726502 14.0598814,18.9701827 14.0598814,17.4144612 C14.0617797,16.3945859 13.6577246,15.4158817 12.9368989,14.6943836 C12.2160733,13.9728856 11.2377462,13.5679181 10.2178697,13.5688705 M120.123584,13.8699248 C120.008897,13.8233333 119.890627,13.7803258 119.765188,13.7409023 C119.58199,13.686045 119.395164,13.6441289 119.20609,13.6154637 C119.013022,13.5835015 118.817598,13.5679155 118.621905,13.5688307 C118.234367,13.5689254 117.849015,13.6269095 117.478622,13.7409023 C117.360351,13.7803258 117.24208,13.8233333 117.120226,13.8699248 C115.956787,14.3653565 115.109434,15.3987785 114.851579,16.6367419 C114.801009,16.8928805 114.775799,17.1533787 114.776308,17.4144612 C114.7754,18.4328967 115.178886,19.4100277 115.898095,20.1311028 C116.077383,20.3044428 116.271676,20.4615567 116.478697,20.6006015 C116.788611,20.808568 117.126487,20.9714723 117.482206,21.0844361 C118.041207,21.2556994 118.631434,21.2997827 119.209674,21.2134586 C119.398831,21.1835953 119.585657,21.1404817 119.768772,21.0844361 C120.124819,20.9722983 120.462809,20.8093389 120.772281,20.6006015 C120.975577,20.4610438 121.166256,20.3039436 121.34213,20.1311028 C122.063658,19.4112856 122.468644,18.4336462 122.467496,17.4144612 C122.46683,17.1532603 122.44042,16.892761 122.388647,16.6367419 C122.131933,15.398233 121.284197,14.3643442 120.12,13.8699248 M41.9502506,13.8699248 C40.8905891,13.4223453 39.6860536,13.4736014 38.6682451,14.0095824 C37.6504365,14.5455635 36.9266596,15.5097625 36.6961654,16.6367419 C36.6426173,16.8924892 36.6161888,17.1531705 36.6173183,17.4144612 C36.5745455,18.8144122 37.2969871,20.1267201 38.5027534,20.8393351 C39.7085197,21.5519501 41.206543,21.5519501 42.4123093,20.8393351 C43.6180755,20.1267201 44.3405171,18.8144122 44.2977444,17.4144612 C44.2970807,17.1532603 44.2706707,16.892761 44.2188972,16.6367419 C43.9639056,15.3974112 43.1155914,14.3628163 41.9502506,13.8699248" id="Shape" fill="#649A3D"></path>
            </g>
        </g>
    </g>
</svg>
